<svg xmlns="http://www.w3.org/2000/svg" xmlns:xlink="http://www.w3.org/1999/xlink" version="1.1" x="0px" y="0px" viewBox="0 0 100 100" style="enable-background:new 0 0 100 100;" xml:space="preserve"><g><path d="M57,90.2c-0.7-9.9-3-31.8-3.3-39.9C53.3,32.9,52.9,5,52.9,5s-0.6-2.9-4.5-4.8C48.8,9,50,29.4,52.3,52.1   C53.5,63.9,55.6,82,57,90.2z"/><path d="M56.4,90.2c-1.1-6.6-2.7-18.7-4.7-38c-1.9-18.6-3-35.7-3.6-46.1c-0.2-0.1-1-0.2-2,0.5   c-1,0.6-1.2,1.1-1.2,1.1s-1.6,26.2-2.6,51.3C41.3,84,42,99.9,42,99.9h15.4C57.4,99.9,57,95.8,56.4,90.2z"/></g></svg>