<svg xmlns="http://www.w3.org/2000/svg" xmlns:xlink="http://www.w3.org/1999/xlink" version="1.1" x="0px" y="0px" viewBox="0 0 100 100" enable-background="new 0 0 100 100" xml:space="preserve"><g><path d="M54.933,34.352h-9.187v9.187h9.187V34.352z M50.339,42.739c-2.095,0-3.794-1.699-3.794-3.794   c0-2.095,1.699-3.794,3.794-3.794c2.095,0,3.794,1.699,3.794,3.794C54.133,41.041,52.434,42.739,50.339,42.739z"></path><path d="M57.091,31.487v-4.373l-0.004-0.007v-3.143l-0.643,0.974v1.078l-2.345-3.978v-5.442l-3.76-11.455l-3.76,11.455v5.442   l-2.349,3.985v-1.085l-0.643-0.974v3.15v4.373h-2.066v14.918h1.216v48.737h15.204V46.404h1.216V31.487H57.091z M54.474,28.316   h0.455v2.617h-0.455V28.316z M52.729,28.316h0.455v2.617h-0.455V28.316z M51.989,17.886h0.455v2.617h-0.455V17.886z M50.737,17.886   h0.455v2.617h-0.455V17.886z M51.439,28.316v2.617h-0.455v-2.617H51.439z M49.486,17.886h0.455v2.617h-0.455V17.886z    M49.239,28.316h0.455v2.617h-0.455V28.316z M48.234,17.886h0.455v2.617h-0.455V17.886z M47.494,28.316h0.455v2.617h-0.455V28.316z    M45.749,28.316h0.455v2.617h-0.455V28.316z M46.204,92.643h-0.455v-6.486h0.455V92.643z M46.204,83.312h-0.455v-6.486h0.455   V83.312z M46.204,73.981h-0.455v-6.486h0.455V73.981z M46.204,64.65h-0.455v-6.486h0.455V64.65z M46.204,55.319h-0.455v-6.486   h0.455V55.319z M47.949,92.643h-0.455v-6.486h0.455V92.643z M47.949,83.312h-0.455v-6.486h0.455V83.312z M47.949,73.981h-0.455   v-6.486h0.455V73.981z M47.949,64.65h-0.455v-6.486h0.455V64.65z M47.949,55.319h-0.455v-6.486h0.455V55.319z M49.694,92.643   h-0.455v-6.486h0.455V92.643z M49.694,83.312h-0.455v-6.486h0.455V83.312z M49.694,73.981h-0.455v-6.486h0.455V73.981z    M49.694,64.65h-0.455v-6.486h0.455V64.65z M49.694,55.319h-0.455v-6.486h0.455V55.319z M51.439,92.643h-0.455v-6.486h0.455V92.643   z M51.439,83.312h-0.455v-6.486h0.455V83.312z M51.439,73.981h-0.455v-6.486h0.455V73.981z M51.439,64.65h-0.455v-6.486h0.455   V64.65z M51.439,55.319h-0.455v-6.486h0.455V55.319z M53.184,92.643h-0.455v-6.486h0.455V92.643z M53.184,83.312h-0.455v-6.486   h0.455V83.312z M53.184,73.981h-0.455v-6.486h0.455V73.981z M53.184,64.65h-0.455v-6.486h0.455V64.65z M53.184,55.319h-0.455   v-6.486h0.455V55.319z M54.929,92.643h-0.455v-6.486h0.455V92.643z M54.929,83.312h-0.455v-6.486h0.455V83.312z M54.929,73.981   h-0.455v-6.486h0.455V73.981z M54.929,64.65h-0.455v-6.486h0.455V64.65z M54.929,55.319h-0.455v-6.486h0.455V55.319z    M55.412,44.018H45.266V33.873h10.146V44.018z"></path><path d="M50.567,38.85v-3.021c0-0.126-0.102-0.228-0.228-0.228c-0.126,0-0.228,0.102-0.228,0.228v3.117c0,0,0,0.001,0,0.001   c0,0.03,0.006,0.059,0.018,0.087c0.012,0.028,0.029,0.053,0.05,0.074c0,0,0,0,0,0.001l2.221,2.186   c0.045,0.044,0.102,0.065,0.16,0.065c0.059,0,0.118-0.023,0.162-0.068c0.088-0.089,0.087-0.234-0.003-0.322L50.567,38.85z"></path></g></svg>