<svg xmlns="http://www.w3.org/2000/svg" xmlns:xlink="http://www.w3.org/1999/xlink" version="1.1" x="0px" y="0px" viewBox="0 0 100 80" style="enable-background:new 0 0 100 80;" xml:space="preserve"><g><g><polygon points="55.9,80.9 55.8,74.7 56,72.8 55.7,72.8 55.6,65 55.8,63.3 55.5,63.2 55.5,56.3 55.6,54.9     55.3,54.9 55.3,49.5 55.5,48.3 55.2,48.2 55.1,44 55.3,42.7 55,42.6 55,42.5 55,42.5 55,40.2 55.2,39 54.9,38.9 54.9,38.8     54.9,38.8 54.9,37 55,35.9 54.8,35.8 54.8,35.6 54.7,35.6 54.7,34.2 54.9,33.1 54.7,33 54.7,32.8 54.6,32.8 54.7,32.3 54.6,32.3     54.6,32.2 54.7,31.1 54.6,31 54.7,30.3 54.5,30.2 54.5,30.2 54.6,29.6 54.6,29.6 54.7,28.8 54.5,28.8 54.7,27.7 54.5,27.6     54.7,26.5 54.5,26.5 54.7,25.4 53.9,25.1 53.8,25 53.7,23.9 53.2,23.9 53.3,22.9 52.6,22.8 52.7,21.9 51.9,21.8 52,20.9     51.2,20.9 50.8,19.3 50.8,19.3 50.8,19.3 50.7,19.2 50.7,19 51,17.5 50.9,17.5 51,16.8 50.4,16.9 50.4,16.7 50.3,16.4 50.3,16.4     50.1,11.4 49.9,16.4 49.9,16.4 49.7,16.7 49.8,16.9 49.2,16.8 49.2,17.5 49.2,17.5 49.4,19 49.5,19.2 49.4,19.3 49.4,19.3     49.3,19.3 49,20.9 48.2,20.9 48.3,21.8 47.4,21.9 47.6,22.8 46.9,22.9 47,23.9 46.5,23.9 46.1,25 46,25.1 45.5,25.4 45.6,26.5     45.5,26.5 45.6,27.6 45.5,27.7 45.6,28.8 45.5,28.8 45.6,29.6 45.6,29.6 45.6,30.2 45.6,30.2 45.5,30.3 45.6,31 45.4,31.1     45.6,32.2 45.6,32.3 45.5,32.3 45.5,32.8 45.5,32.8 45.5,33 45.3,33.1 45.5,34.2 45.5,35.6 45.4,35.6 45.4,35.8 45.1,35.9     45.3,37 45.3,38.8 45.2,38.8 45.3,38.9 45,39 45.2,40.2 45.2,42.5 45.1,42.5 45.1,42.6 44.8,42.7 45,44 45,48.2 44.7,48.3     44.9,49.5 44.8,54.9 44.5,54.9 44.7,56.3 44.7,63.2 44.4,63.3 44.5,65 44.5,72.8 44.2,72.8 44.3,74.7 44.3,80.9 44.1,80.9     43.9,88.1 50.1,88.1 50.1,88.1 56.3,88.1 56.1,80.9   "/></g></g></svg>