<?xml version="1.0" encoding="utf-8"?><!DOCTYPE svg PUBLIC "-//W3C//DTD SVG 1.1//EN" "http://www.w3.org/Graphics/SVG/1.1/DTD/svg11.dtd"><svg version="1.1" xmlns="http://www.w3.org/2000/svg" xmlns:xlink="http://www.w3.org/1999/xlink" x="0px" y="0px" viewBox="0 0 15.946 100" enable-background="new 0 0 15.946 100" xml:space="preserve"><path fill="#010101" d="M7.058,26.533v4.409H8.89v-4.408c0.409-0.314,0.679-0.831,0.678-1.418c0-0.001,0-0.002,0-0.003
	c-0.001-0.62-0.302-1.16-0.751-1.466v-0.552H7.131v0.552c-0.45,0.307-0.751,0.848-0.751,1.469c0,0.001,0,0.002,0,0.003
	C6.38,25.704,6.649,26.219,7.058,26.533z"/><polygon fill="#010101" points="7.543,23.068 8.404,23.068 8.404,17.673 8.576,17.673 8.576,17.144 7.371,17.144 7.371,17.673 
	7.543,17.673 "/><polygon fill="#010101" points="7.683,17.078 8.265,17.078 8.265,11.511 8.576,11.511 8.576,10.981 7.371,10.981 7.371,11.511 
	7.683,11.511 "/><rect x="7.613" y="4.566" fill="#010101" width="0.721" height="6.375"/><rect x="7.713" fill="#010101" width="0.521" height="4.527"/><path fill="#010101" d="M14.254,93.142c0.375-0.403,0.534-1.016,0.366-1.603c-0.156-0.549-0.562-0.941-1.039-1.07l-1.532-6.075
	c0.877-0.984,1.46-2.28,1.583-3.724h-0.307c0.018-0.19,0.027-0.383,0.027-0.578c0-0.194-0.01-0.387-0.026-0.576h0.306
	c-0.181-2.123-1.35-3.932-2.999-4.886V43.105c1.27-0.932,2.105-2.511,2.105-4.303c0-2.446-1.562-4.484-3.655-5.031l-0.129-2.294
	h0.21v-0.519H6.782v0.519H7l-0.136,2.294c-2.093,0.546-3.655,2.584-3.655,5.031c0,1.792,0.836,3.372,2.105,4.303v31.522
	c-1.65,0.953-2.818,2.764-2.999,4.888h0.305c-0.017,0.189-0.027,0.382-0.027,0.576c0,0.195,0.01,0.388,0.027,0.578H2.315
	c0.123,1.444,0.705,2.74,1.582,3.725l-1.532,6.074c-0.478,0.129-0.882,0.521-1.039,1.07c-0.168,0.586-0.009,1.199,0.366,1.603
	L0,99.867h1.692l1.612-6.402c0.022-0.012,0.043-0.027,0.065-0.039l1.944,3.045V100h1.63v-0.977l0.539,0.844h0.975l0.545-0.853V100
	h1.63v-3.534l1.943-3.04c0.022,0.012,0.043,0.027,0.065,0.039l1.612,6.402h1.692L14.254,93.142z M6.944,47.788h0.173
	c0.129,0.205,0.307,0.377,0.543,0.457c0.453,0.153,0.916-0.053,1.171-0.457h0.172v3.737H8.716c-0.118-0.132-0.256-0.243-0.429-0.302
	c-0.391-0.132-0.791,0.005-1.059,0.302H6.944V47.788z M6.944,52.962h0.172c0.13,0.205,0.308,0.377,0.543,0.456
	c0.453,0.154,0.916-0.052,1.171-0.456h0.172v3.737H8.716c-0.118-0.132-0.256-0.243-0.429-0.302
	c-0.391-0.132-0.791,0.005-1.059,0.302H6.944V52.962z M6.944,58.136h0.172c0.129,0.205,0.308,0.377,0.543,0.457
	c0.453,0.153,0.916-0.053,1.171-0.457h0.171v3.737H8.716c-0.118-0.132-0.256-0.243-0.429-0.302c-0.39-0.132-0.79,0.005-1.058,0.302
	H6.944V58.136z M6.944,63.31h0.172c0.129,0.205,0.308,0.377,0.543,0.457c0.453,0.153,0.916-0.053,1.171-0.457h0.171v3.738H8.716
	c-0.119-0.132-0.256-0.243-0.429-0.302c-0.391-0.133-0.791,0.005-1.059,0.302H6.944V63.31z M6.944,68.484h0.173
	c0.13,0.205,0.308,0.377,0.543,0.456c0.453,0.153,0.916-0.052,1.171-0.456h0.172v3.789H6.944V68.484z M7.974,43.988
	c0.354,0,0.697-0.049,1.029-0.129v2.492H8.716C8.598,46.22,8.46,46.108,8.287,46.05c-0.391-0.133-0.791,0.005-1.059,0.302H6.944
	v-2.492C7.276,43.939,7.619,43.988,7.974,43.988z M6.944,73.71h2.059v0.301c-0.335-0.067-0.68-0.104-1.032-0.104
	c-0.351,0-0.693,0.037-1.026,0.104V73.71z M3.893,92.95c0.093-0.138,0.166-0.292,0.216-0.465c0.141-0.492,0.049-1.004-0.206-1.394
	l1.394-5.545c0.006,0.003,0.012,0.007,0.018,0.011v9.614L3.893,92.95z M7.976,99.331L6.944,97.72V86.176
	c0.333,0.066,0.676,0.104,1.026,0.104c0.353,0,0.697-0.037,1.032-0.104v11.549L7.976,99.331z M10.633,95.174v-9.618
	c0.006-0.004,0.011-0.008,0.017-0.011l1.395,5.547c-0.255,0.39-0.347,0.901-0.206,1.394c0.05,0.173,0.123,0.327,0.216,0.465
	L10.633,95.174z"/></svg>